<svg id="visual" viewBox="0 0 960 540" width="960" height="540" xmlns="http://www.w3.org/2000/svg" xmlns:xlink="http://www.w3.org/1999/xlink" version="1.1"><rect x="0" y="0" width="960" height="540" fill="#001220"></rect><path d="M0 370L17.8 354C35.7 338 71.3 306 106.8 308.5C142.3 311 177.7 348 213.2 353.7C248.7 359.3 284.3 333.7 320 325C355.7 316.3 391.3 324.7 426.8 324.5C462.3 324.3 497.7 315.7 533.2 306.5C568.7 297.3 604.3 287.7 640 298.8C675.7 310 711.3 342 746.8 339.5C782.3 337 817.7 300 853.2 303.7C888.7 307.3 924.3 351.7 942.2 373.8L960 396L960 541L942.2 541C924.3 541 888.7 541 853.2 541C817.7 541 782.3 541 746.8 541C711.3 541 675.7 541 640 541C604.3 541 568.7 541 533.2 541C497.7 541 462.3 541 426.8 541C391.3 541 355.7 541 320 541C284.3 541 248.7 541 213.2 541C177.7 541 142.3 541 106.8 541C71.3 541 35.7 541 17.8 541L0 541Z" fill="#fa7268"></path><path d="M0 326L17.8 333.5C35.7 341 71.3 356 106.8 373.2C142.3 390.3 177.7 409.7 213.2 408.5C248.7 407.3 284.3 385.7 320 380.7C355.7 375.7 391.3 387.3 426.8 383C462.3 378.7 497.7 358.3 533.2 362C568.7 365.7 604.3 393.3 640 410.2C675.7 427 711.3 433 746.8 422.8C782.3 412.7 817.7 386.3 853.2 377.8C888.7 369.3 924.3 378.7 942.2 383.3L960 388L960 541L942.2 541C924.3 541 888.7 541 853.2 541C817.7 541 782.3 541 746.8 541C711.3 541 675.7 541 640 541C604.3 541 568.7 541 533.2 541C497.7 541 462.3 541 426.8 541C391.3 541 355.7 541 320 541C284.3 541 248.7 541 213.2 541C177.7 541 142.3 541 106.8 541C71.3 541 35.7 541 17.8 541L0 541Z" fill="#eb5967"></path><path d="M0 399L17.8 411.2C35.7 423.3 71.3 447.7 106.8 443.7C142.3 439.7 177.7 407.3 213.2 395.8C248.7 384.3 284.3 393.7 320 395C355.7 396.3 391.3 389.7 426.8 389.2C462.3 388.7 497.7 394.3 533.2 401C568.7 407.7 604.3 415.3 640 418.3C675.7 421.3 711.3 419.7 746.8 417.8C782.3 416 817.7 414 853.2 421C888.7 428 924.3 444 942.2 452L960 460L960 541L942.2 541C924.3 541 888.7 541 853.2 541C817.7 541 782.3 541 746.8 541C711.3 541 675.7 541 640 541C604.3 541 568.7 541 533.2 541C497.7 541 462.3 541 426.8 541C391.3 541 355.7 541 320 541C284.3 541 248.7 541 213.2 541C177.7 541 142.3 541 106.8 541C71.3 541 35.7 541 17.8 541L0 541Z" fill="#da3f67"></path><path d="M0 462L17.8 460.5C35.7 459 71.3 456 106.8 464C142.3 472 177.7 491 213.2 500.5C248.7 510 284.3 510 320 504C355.7 498 391.3 486 426.8 475.7C462.3 465.3 497.7 456.7 533.2 463.7C568.7 470.7 604.3 493.3 640 503.5C675.7 513.7 711.3 511.3 746.8 504.3C782.3 497.3 817.7 485.7 853.2 481.2C888.7 476.7 924.3 479.3 942.2 480.7L960 482L960 541L942.2 541C924.3 541 888.7 541 853.2 541C817.7 541 782.3 541 746.8 541C711.3 541 675.7 541 640 541C604.3 541 568.7 541 533.2 541C497.7 541 462.3 541 426.8 541C391.3 541 355.7 541 320 541C284.3 541 248.7 541 213.2 541C177.7 541 142.3 541 106.8 541C71.3 541 35.7 541 17.8 541L0 541Z" fill="#c62368"></path></svg>